#!OML:ASF E:\Steps\Project 1\Capture day 1\Session 2\Subject.ASF
:FULLY-SPECIFIED
:DEGREES
197
root 17.0272 17.9131 20.0887 -159.809 -6.46946 171.944
lowerback -25.8419 -2.05106 -8.69085
upperback 1.69917 -0.0644009 -1.00684
thorax 15.8434 -0.799656 3.62209
lowerneck -4.038 2.25985 -0.83213
upperneck 16.5448 2.18183 1.67618
head 5.61908 0.83732 0.765254
rclavicle 3.77691e-015 2.40529e-014
rhumerus -38.6013 -21.0936 -74.6405
rradius 31.685
rwrist -1.69134
rhand -5.95977 -56.7193
rfingers 7.12502
rthumb 19.871 -85.7235
lclavicle 3.77691e-015 2.40529e-014
lhumerus -32.5289 2.64555 81.4201
lradius 27.0363
lwrist -2.71923
lhand -20.6774 -12.9782
lfingers 7.12502
lthumb 5.68582 16.9256
rfemur -17.1012 6.61681 16.6589
rtibia 15.7953
rfoot -25.2927 -6.55476
rtoes -11.804
lfemur -49.1883 -8.007 -25.1243
ltibia 56.5342
lfoot -10.8189 1.54
ltoes -17.695
198
root 17.0209 17.9083 20.0584 -159.846 -6.55735 171.82
lowerback -26.0118 -2.16763 -8.76569
upperback 1.75205 -0.177105 -0.972034
thorax 16.0064 -0.864128 3.65599
lowerneck -3.97838 2.44264 -1.16084
upperneck 16.4673 2.43097 1.92507
head 5.5728 0.957734 0.910962
rclavicle 3.77691e-015 1.59028e-015
rhumerus -38.4665 -21.5778 -74.1886
rradius 31.1651
rwrist -0.71321
rhand -5.54843 -53.3855
rfingers 7.12502
rthumb 20.2664 -82.3482
lclavicle 3.77691e-015 1.59028e-015
lhumerus -32.4594 2.91714 81.3645
lradius 26.6561
lwrist -2.89176
lhand -20.6403 -12.9321
lfingers 7.12502
lthumb 5.72161 16.9707
rfemur -16.9775 6.49519 16.5605
rtibia 15.969
rfoot -25.4253 -6.71716
rtoes -12.8665
lfemur -49.7208 -8.07656 -24.8979
ltibia 56.0315
lfoot -10.4393 1.67004
ltoes -21.0944
199
root 17.0226 17.9033 20.027 -159.824 -6.50593 171.709
lowerback -26.2712 -2.24236 -8.9433
upperback 1.81031 -0.191776 -0.949503
thorax 16.2076 -0.896556 3.76756
lowerneck -4.02037 2.49604 -1.24413
upperneck 16.4099 2.51296 1.98342
head 5.55864 1.00037 0.948036
rclavicle 3.47873e-015 -3.06128e-014
rhumerus -38.2432 -21.5466 -74.2189
rradius 31.1573
rwrist -0.66991
rhand -5.59251 -52.1381
rfingers 7.12502
rthumb 20.224 -81.1053
lclavicle 3.47873e-015 -3.06128e-014
lhumerus -32.2086 3.07213 81.2726
lradius 26.1237
lwrist -3.06413
lhand -20.6273 -12.977
lfingers 7.12502
lthumb 5.73421 16.9254
rfemur -16.9431 6.34222 16.523
rtibia 16.1506
rfoot -25.5527 -6.88292
rtoes -14.2064
lfemur -50.2965 -7.86055 -24.6407
ltibia 55.4383
lfoot -9.84795 1.47789
ltoes -21.014
200
root 17.0076 17.9034 19.9836 -160.054 -6.19638 171.488
lowerback -26.3832 -2.19559 -8.99429
upperback 1.80393 -0.0946926 -1.04241
thorax 16.2416 -0.858324 3.72722
lowerneck -3.95316 2.38073 -0.964456
upperneck 16.6812 2.35914 1.55318
head 5.64454 0.898794 0.758493
rclavicle -2.28602e-015 -1.78906e-014
rhumerus -38.3833 -21.1027 -74.2971
rradius 31.379
rwrist -1.09919
rhand -5.67177 -52.5611
rfingers 7.12502
rthumb 20.1479 -81.5363
lclavicle -2.28602e-015 -1.78906e-014
lhumerus -32.3049 3.2488 81.1311
lradius 25.5775
lwrist -3.20708
lhand -20.6891 -13.0375
lfingers 7.12502
lthumb 5.67452 16.8665
rfemur -16.7067 6.32906 16.1784
rtibia 16.445
rfoot -25.7916 -6.95546
rtoes -15.45
lfemur -50.3999 -7.72349 -24.5762
ltibia 54.5815
lfoot -9.43862 1.60097
ltoes -20.1328
201
root 17.0087 17.8961 19.9574 -160.248 -6.35726 171.578
lowerback -26.1408 -2.25487 -8.8842
upperback 1.68081 -0.25407 -0.988393
thorax 15.9944 -0.908855 3.66916
lowerneck -3.89661 2.29689 -0.779137
upperneck 16.9398 2.24162 1.23834
head 5.72399 0.817285 0.622226
rclavicle -1.51573e-014 -5.1684e-015
rhumerus -38.5788 -20.9077 -74.2203
rradius 31.354
rwrist -1.11814
rhand -5.62016 -54.0131
rfingers 7.12502
rthumb 20.1975 -82.9831
lclavicle -1.51573e-014 -5.1684e-015
lhumerus -32.5858 3.49744 80.9503
lradius 25.1359
lwrist -3.45591
lhand -20.8038 -13.2052
lfingers 7.12502
lthumb 5.56376 16.7018
rfemur -16.4284 6.45453 16.3956
rtibia 16.6195
rfoot -25.8715 -6.99741
rtoes -14.2628
lfemur -50.8118 -7.74178 -23.9965
ltibia 53.9633
lfoot -9.24446 1.30301
ltoes -19.5943
202
root 17.0038 17.8873 19.9173 -160.411 -6.2391 171.423
lowerback -26.2002 -2.28665 -8.97604
upperback 1.65944 -0.261516 -1.03256
thorax 15.9981 -0.91982 3.66535
lowerneck -3.81208 2.30657 -0.843995
upperneck 17.0915 2.23689 1.23743
head 5.75608 0.800911 0.631657
rclavicle -1.20762e-014 -9.14409e-015
rhumerus -38.6733 -20.7094 -74.2459
rradius 31.4784
rwrist -1.04301
rhand -6.04681 -51.2514
rfingers 7.12502
rthumb 19.7874 -80.2641
lclavicle -1.20762e-014 -9.14409e-015
lhumerus -32.7839 3.85042 80.7108
lradius 24.7037
lwrist -3.83308
lhand -20.7915 -13.3335
lfingers 7.12502
lthumb 5.57564 16.5732
rfemur -16.0581 6.52667 16.225
rtibia 16.5809
rfoot -25.9404 -6.71123
rtoes -12.6129
lfemur -51.0405 -7.80368 -23.6718
ltibia 53.0239
lfoot -9.13751 1.1228
ltoes -18.2878
203
root 16.9936 17.8763 19.8733 -160.525 -6.06091 171.162
lowerback -26.3365 -2.29477 -9.03336
upperback 1.63401 -0.231125 -1.17845
thorax 16.0291 -0.910227 3.54283
lowerneck -3.8433 2.28256 -0.754632
upperneck 17.3218 2.18623 1.13418
head 5.83678 0.763997 0.582217
rclavicle 1.93815e-015 7.15625e-015
rhumerus -38.776 -20.5957 -74.3441
rradius 31.6787
rwrist -1.05169
rhand -5.67167 -51.0815
rfingers 7.12502
rthumb 20.148 -80.0567
lclavicle 1.93815e-015 7.15625e-015
lhumerus -32.9055 3.93958 80.4336
lradius 24.2011
lwrist -3.95956
lhand -20.4618 -13.4699
lfingers 7.12502
lthumb 5.89398 16.4281
rfemur -15.801 6.57113 15.9067
rtibia 16.705
rfoot -26.2378 -6.59289
rtoes -12.2779
lfemur -51.1875 -7.85438 -23.5119
ltibia 51.8518
lfoot -8.78429 1.09063
ltoes -18.5186
204
root 16.9834 17.8675 19.8343 -160.617 -6.02207 171.067
lowerback -26.4976 -2.34727 -9.02128
upperback 1.63467 -0.289366 -1.17732
thorax 16.1178 -0.939351 3.51189
lowerneck -3.84479 2.29522 -0.689754
upperneck 17.2776 2.24081 0.895236
head 5.82669 0.779399 0.499553
rclavicle 8.10048e-015 -1.03368e-014
rhumerus -38.6917 -20.4889 -74.2987
rradius 31.751
rwrist -0.913763
rhand -5.87302 -52.3247
rfingers 7.12502
rthumb 19.9544 -81.3201
lclavicle 8.10048e-015 -1.03368e-014
lhumerus -32.882 4.16785 80.2912
lradius 23.6146
lwrist -4.08313
lhand -20.2927 -13.6283
lfingers 7.12502
lthumb 6.05726 16.2651
rfemur -15.735 6.70235 15.8437
rtibia 17.1466
rfoot -26.6416 -6.98186
rtoes -13.7544
lfemur -51.4381 -7.80371 -23.219
ltibia 50.7823
lfoot -8.21068 1.00075
ltoes -19.456
205
root 16.9754 17.8656 19.7915 -160.813 -5.88854 170.892
lowerback -26.6113 -2.36299 -9.10384
upperback 1.68553 -0.259087 -1.24936
thorax 16.23 -0.936696 3.48596
lowerneck -3.72095 2.5517 -0.86455
upperneck 17.2261 2.57678 1.0894
head 5.78077 0.945097 0.60796
rclavicle -4.96962e-015 -2.46493e-014
rhumerus -38.5653 -20.3499 -74.4002
rradius 31.8888
rwrist -0.873669
rhand -4.85183 -54.0399
rfingers 7.12502
rthumb 20.9358 -82.93
lclavicle -4.96962e-015 -2.46493e-014
lhumerus -32.8024 4.5802 80.0112
lradius 22.9847
lwrist -4.40587
lhand -20.4881 -13.375
lfingers 7.12502
lthumb 5.86856 16.5237
rfemur -15.4223 6.86569 15.6665
rtibia 17.2823
rfoot -26.851 -7.35998
rtoes -15.0558
lfemur -51.5503 -7.74828 -22.9747
ltibia 49.7841
lfoot -7.81099 0.95466
ltoes -21.0724
